<svg xmlns="http://www.w3.org/2000/svg" width="120" height="120" viewBox="0 0 120 120">
    <g fill="none" fill-rule="evenodd">
        <g fill="#D9DCE1" fill-rule="nonzero">
            <path d="M630 366c-33.137 0-60 26.863-60 60s26.863 60 60 60 60-26.863 60-60-26.863-60-60-60zm0 11.613c26.742 0 48.387 21.641 48.387 48.387 0 26.742-21.641 48.387-48.387 48.387-26.742 0-48.387-21.641-48.387-48.387 0-26.742 21.641-48.387 48.387-48.387m33.92 31.516l-5.452-5.496c-1.129-1.138-2.967-1.146-4.106-.017l-34.198 33.924-14.465-14.584c-1.13-1.138-2.968-1.145-4.106-.016l-5.497 5.452c-1.138 1.13-1.145 2.967-.016 4.106l21.963 22.14c1.13 1.14 2.967 1.147 4.106.017l41.755-41.42c1.138-1.13 1.145-2.968.016-4.106z" transform="translate(-570 -366)"/>
        </g>
    </g>
</svg>
